<svg xmlns="http://www.w3.org/2000/svg" viewBox="0 0 900 230" role="img" aria-labelledby="title desc">
  <title id="title">Cloud2Tech logo</title>
  <desc id="desc">Cloud2Tech primary wordmark with a modern cloud and digital connection symbol.</desc>
  <defs>
    <linearGradient id="cloud" x1="0" y1="0" x2="1" y2="1">
      <stop offset="0" stop-color="#1677FF"/>
      <stop offset="1" stop-color="#16C7C2"/>
    </linearGradient>
  </defs>
  <g transform="translate(35 23)">
    <path d="M72 137c-31 0-56-22-56-50 0-27 23-49 51-50 11-31 41-52 76-52 39 0 71 27 79 62 4-1 8-2 13-2 27 0 49 20 49 45s-22 45-49 45H72Z" fill="none" stroke="url(#cloud)" stroke-width="18" stroke-linecap="round" stroke-linejoin="round"/>
    <circle cx="108" cy="93" r="8" fill="#FFC83D"/>
    <circle cx="145" cy="75" r="8" fill="#FFC83D"/>
    <circle cx="182" cy="93" r="8" fill="#FFC83D"/>
    <path d="M116 89l22-11m14 0 22 11" fill="none" stroke="#FFC83D" stroke-width="6" stroke-linecap="round"/>
  </g>
  <text x="300" y="153" font-family="Poppins, Arial, sans-serif" font-size="86" font-weight="700" letter-spacing="-2">
    <tspan fill="#1677FF">Cloud</tspan><tspan fill="#16AFAF">2</tspan><tspan fill="#1677FF">Tech</tspan>
  </text>
</svg>
